<svg xmlns="http://www.w3.org/2000/svg" width="400" height="400" viewBox="0 0 400 400"><defs><style>.a{fill:#cecece;stroke:#707070;opacity:0;}.b{fill:#f2f5ff;}.c,.d{fill:#fff;}.c,.e,.f,.m{stroke:#37f;}.c,.e,.m{stroke-width:2px;}.e,.i{fill:#eef1fb;}.f,.m,.o,.r{fill:none;}.f{stroke-width:4px;}.g,.j{fill:#00d6b9;}.g,.h{stroke:rgba(0,0,0,0);stroke-miterlimit:10;}.h,.k{fill:#ffc60a;}.l{fill:#37f;}.n{fill:#5074ee;font-size:12px;font-family:SegoeUI, Segoe UI;letter-spacing:0.4em;}.o{stroke:#fff;stroke-width:3px;}.p{fill:#0c296e;font-size:20px;font-family:MicrosoftYaHei, Microsoft YaHei;}.q,.s,.t{stroke:none;}.s{fill:#5074ee;}.t{fill:#37f;}</style></defs><g transform="translate(13330 22004.5)"><g class="a" transform="translate(-13330 -22004.5)"><rect class="q" width="400" height="400"/><rect class="r" x="0.5" y="0.5" width="399" height="399"/></g><path class="b" d="M73.5,5.085C155.091-20.441,224.341,57.2,243.124,81.444s86.5,20.991,75.72,86.005S150.969,270.567,102.949,208.473s-65.872-43.045-89.824-72.394S-8.087,30.612,73.5,5.085Z" transform="matrix(0.921, -0.391, 0.391, 0.921, -13321.168, -21832.445)"/><g class="c" transform="translate(-13198.149 -21764.609)"><rect class="q" width="210.358" height="27.462" rx="8"/><rect class="r" x="1" y="1" width="208.358" height="25.462" rx="7"/></g><g class="d" transform="translate(-13287.18 -21906.43)"><path class="q" d="M 201.5914459228516 127.0156173706055 L 25.04619979858398 127.0156173706055 L -10.99830436706543 6.903339385986328 C -10.92032337188721 3.635325193405151 -8.142691612243652 1.000006914138794 -4.739572525024414 1.000006914138794 L 159.3728942871094 1.000006914138794 C 162.8249206542969 1.000006914138794 165.6333770751953 3.711562395095825 165.6333770751953 7.044534683227539 L 165.6333770751953 7.191340446472168 L 165.6755676269531 7.33195161819458 L 201.5914459228516 127.0156173706055 Z"/><path class="s" d="M -4.73956298828125 1.999992370605469 C -7.545989990234375 1.999992370605469 -9.84619140625 4.118606567382812 -9.99261474609375 6.775482177734375 L 25.79014587402344 126.0156097412109 L 200.2472839355469 126.0156097412109 L 164.6333465576172 7.338134765625 L 164.6333465576172 7.044517517089844 C 164.6333465576172 4.262962341308594 162.2735290527344 1.999992370605469 159.3729095458984 1.999992370605469 L -4.73956298828125 1.999992370605469 M -4.73956298828125 -1.52587890625e-05 L 159.3729095458984 -1.52587890625e-05 C 163.3827362060547 -1.52587890625e-05 166.6333465576172 3.1539306640625 166.6333465576172 7.044517517089844 L 202.9355773925781 128.0156097412109 L 24.30220031738281 128.0156097412109 L -12 7.044517517089844 C -12 3.1539306640625 -8.7493896484375 -1.52587890625e-05 -4.73956298828125 -1.52587890625e-05 Z"/></g><g class="e" transform="translate(-13280.685 -21764.609)"><path class="q" d="M8,0H99.292a0,0,0,0,1,0,0V27.462a0,0,0,0,1,0,0H8a8,8,0,0,1-8-8V8A8,8,0,0,1,8,0Z"/><path class="r" d="M8,1H98.292a0,0,0,0,1,0,0V26.462a0,0,0,0,1,0,0H8a7,7,0,0,1-7-7V8A7,7,0,0,1,8,1Z"/></g><g class="f" transform="translate(-12973 -21844)"><ellipse class="q" cx="11" cy="12.5" rx="11" ry="12.5"/><ellipse class="r" cx="11" cy="12.5" rx="9" ry="10.5"/></g><path class="g" d="M8.876,22.19a4.438,4.438,0,0,0-4.438-4.438,4.438,4.438,0,0,1,0-8.875A4.439,4.439,0,0,0,8.876,4.437a4.438,4.438,0,0,1,8.876,0A4.438,4.438,0,0,0,22.19,8.876a4.438,4.438,0,1,1,0,8.875,4.438,4.438,0,0,0-4.438,4.439,4.438,4.438,0,0,1-8.876,0Z" transform="translate(-13232.499 -21719.803) rotate(28)"/><path class="h" d="M7.489,4.993V2.5a2.5,2.5,0,0,1,4.993,0v2.5a2.5,2.5,0,0,1-4.993,0Zm9.986,7.489h-2.5a2.5,2.5,0,0,1,0-4.993h2.5a2.5,2.5,0,1,1,0,4.993Zm-12.482,0H2.5a2.5,2.5,0,1,1,0-4.993h2.5a2.5,2.5,0,0,1,0,4.993Zm2.5,4.993v-2.5a2.5,2.5,0,0,1,4.993,0v2.5a2.5,2.5,0,0,1-4.993,0Z" transform="matrix(-0.848, 0.53, -0.53, -0.848, -12960.98, -21874.111)"/><path class="g" d="M7.489,4.993V2.5a2.5,2.5,0,0,1,4.993,0v2.5a2.5,2.5,0,0,1-4.993,0Zm9.986,7.489h-2.5a2.5,2.5,0,0,1,0-4.993h2.5a2.5,2.5,0,1,1,0,4.993Zm-12.482,0H2.5a2.5,2.5,0,1,1,0-4.993h2.5a2.5,2.5,0,0,1,0,4.993Zm2.5,4.993v-2.5a2.5,2.5,0,0,1,4.993,0v2.5a2.5,2.5,0,0,1-4.993,0Z" transform="translate(-13007.635 -21906.227) rotate(106)"/><g class="d" transform="translate(-13318.168 -21923.973)"><path class="q" d="M 261.6569213867188 160.6040802001953 L 42.99279403686523 160.6040802001953 L 1.00050413608551 20.97927093505859 C 1.019123315811157 18.31332015991211 1.5506591796875 15.72779941558838 2.581094741821289 13.2915735244751 C 3.594627857208252 10.89527320861816 5.045827865600586 8.742939949035645 6.89436149597168 6.894406795501709 C 8.742894172668457 5.045873641967773 10.89522838592529 3.594640016555786 13.29152774810791 2.581106662750244 C 15.7719612121582 1.531973481178284 18.40739440917969 1.000006794929504 21.12466049194336 1.000006794929504 L 199.6279602050781 1.000006794929504 C 202.3452301025391 1.000006794929504 204.9806671142578 1.531973481178284 207.4610900878906 2.581106662750244 C 209.8573913574219 3.594640016555786 212.0097351074219 5.045873641967773 213.8582611083984 6.894406795501709 C 215.706787109375 8.742939949035645 217.1579895019531 10.89527320861816 218.1715240478516 13.2915735244751 C 219.2206573486328 15.77200698852539 219.7526245117188 18.40744018554688 219.7526245117188 21.12470626831055 L 219.7526245117188 21.27184104919434 L 219.7949981689453 21.41270637512207 L 261.6569213867188 160.6040802001953 Z"/><path class="t" d="M 21.1246337890625 2 C 16.01625061035156 2 11.21363830566406 3.98931884765625 7.601455688476562 7.60150146484375 C 4.0570068359375 11.14599609375 2.07513427734375 15.83636474609375 2.002105712890625 20.83749389648438 L 43.73626708984375 159.6040802001953 L 260.3119506835938 159.6040802001953 L 218.7526092529297 21.41897583007812 L 218.7526092529297 21.12472534179688 C 218.7526092529297 16.01632690429688 216.7632751464844 11.21368408203125 213.1511383056641 7.60150146484375 C 209.5389556884766 3.98931884765625 204.7363586425781 2 199.6279602050781 2 L 21.1246337890625 2 M 21.1246337890625 0 L 199.6279602050781 0 C 211.2947845458984 0 220.7526092529297 9.457855224609375 220.7526092529297 21.12472534179688 L 263.0019226074219 161.6040802001953 L 42.24928283691406 161.6040802001953 L 0 21.12472534179688 C 0 9.457855224609375 9.45782470703125 0 21.1246337890625 0 Z"/></g><g class="i" transform="translate(-13301.84 -21909.639)"><path class="q" d="M 213.4779205322266 132.2693328857422 L 44.3655891418457 132.2693328857422 C 38.86841201782227 132.2693328857422 34.39614868164062 128.0289459228516 34.39614868164062 122.8168029785156 L 34.39614868164062 122.6713333129883 L 34.35470962524414 122.5319213867188 L 1.001108407974243 10.31078433990479 C 1.081429839134216 5.163848400115967 5.52225923538208 1.000011801719666 10.96944332122803 1.000011801719666 L 180.0817718505859 1.000011801719666 C 185.5789489746094 1.000011801719666 190.0512390136719 5.240394115447998 190.0512390136719 10.45251178741455 L 190.0512390136719 10.59798240661621 L 190.0926818847656 10.73739433288574 L 223.4462432861328 122.9585342407227 C 223.3659210205078 128.1054992675781 218.9250946044922 132.2693328857422 213.4779205322266 132.2693328857422 Z"/><path class="t" d="M 10.96943664550781 1.999984741210938 C 6.121490478515625 1.999984741210938 2.159500122070312 5.643600463867188 2.004684448242188 10.17736053466797 L 35.3961181640625 122.5258941650391 L 35.3961181640625 122.8168029785156 C 35.3961181640625 127.4775390625 39.4197998046875 131.2693023681641 44.36558532714844 131.2693023681641 L 213.4779205322266 131.2693023681641 C 218.3258666992188 131.2693023681641 222.2878570556641 127.6257171630859 222.4426727294922 123.0919570922852 L 189.0512084960938 10.74342346191406 L 189.0512084960938 10.4525146484375 C 189.0512084960938 5.791778564453125 185.0275268554688 1.999984741210938 180.0817718505859 1.999984741210938 L 10.96943664550781 1.999984741210938 M 10.96943664550781 -1.52587890625e-05 L 180.0817718505859 -1.52587890625e-05 C 186.1400299072266 -1.52587890625e-05 191.0512084960938 4.67974853515625 191.0512084960938 10.4525146484375 L 224.4473571777344 122.8168029785156 C 224.4473571777344 128.5895690917969 219.5361480712891 133.2693023681641 213.4779205322266 133.2693023681641 L 44.36558532714844 133.2693023681641 C 38.30729675292969 133.2693023681641 33.3961181640625 128.5895690917969 33.3961181640625 122.8168029785156 L 0 10.4525146484375 C 0 4.67974853515625 4.911178588867188 -1.52587890625e-05 10.96943664550781 -1.52587890625e-05 Z"/></g><g class="c" transform="translate(-13251 -21860.344)"><rect class="q" width="120" height="18" rx="9"/><rect class="r" x="1" y="1" width="118" height="16" rx="8"/></g><rect class="j" width="67" height="8" rx="4" transform="translate(-13245 -21855.344)"/><g class="d" transform="translate(-13056 -21859)"><path class="q" d="M 68 61 L 24 61 C 20.89457511901855 61 17.8825740814209 60.39202499389648 15.04766273498535 59.19296264648438 C 12.30896282196045 58.03458786010742 9.849149703979492 56.37606430053711 7.736537456512451 54.26346206665039 C 5.623937606811523 52.15084838867188 3.965412616729736 49.69103622436523 2.807037591934204 46.95233917236328 C 1.61221969127655 44.12746047973633 1.0043123960495 41.12675857543945 1.000023245811462 38.03298950195312 L 2.997787475585938 8.066525459289551 L 3 8.033300399780273 L 3 8 C 3 4.14018726348877 6.14018726348877 1 10 1 L 82 1 C 85.85980987548828 1 89 4.14018726348877 89 8 L 89 8.033300399780273 L 89.00221252441406 8.066525459289551 L 90.99997711181641 38.03298950195312 C 90.99568939208984 41.12675857543945 90.38777923583984 44.12746047973633 89.19296264648438 46.95233917236328 C 88.03458404541016 49.69103622436523 86.37606048583984 52.15084838867188 84.26346588134766 54.26346206665039 C 82.15084838867188 56.37606430053711 79.6910400390625 58.03458786010742 76.95233917236328 59.19296264648438 C 74.11742401123047 60.39202499389648 71.10542297363281 61 68 61 Z"/><path class="t" d="M 10 2 C 6.69158935546875 2 4 4.691585540771484 4 8 L 4 8.066585540771484 L 2.000091552734375 38.06521606445312 C 2.008544921875 41.01301574707031 2.589797973632812 43.87165832519531 3.728050231933594 46.56278610229492 C 4.83599853515625 49.18229293823242 6.422561645507812 51.5352668762207 8.443656921386719 53.55634689331055 C 10.46473693847656 55.57743835449219 12.81770324707031 57.16400146484375 15.43721008300781 58.27194595336914 C 18.14820098876953 59.41860198974609 21.02913665771484 60 24 60 L 68 60 C 70.97087097167969 60 73.85179901123047 59.41860198974609 76.56278991699219 58.27194595336914 C 79.18229675292969 57.16400146484375 81.53526306152344 55.57743835449219 83.55635070800781 53.55634689331055 C 85.57743835449219 51.5352668762207 87.16400146484375 49.18229293823242 88.27194976806641 46.56278610229492 C 89.41020202636719 43.87165832519531 89.991455078125 41.01301574707031 89.99990844726562 38.06521606445312 L 88 8.066585540771484 L 88 8 C 88 4.691585540771484 85.30841064453125 2 82 2 L 10 2 M 10 0 L 82 0 C 86.41828155517578 0 90 3.581718444824219 90 8 L 92 38 C 92 51.25484085083008 81.25483703613281 62 68 62 L 24 62 C 10.74516296386719 62 0 51.25484085083008 0 38 L 2 8 C 2 3.581718444824219 5.581718444824219 0 10 0 Z"/></g><g class="k" transform="translate(-12999.867 -21823.477) rotate(-45)"><path class="q" d="M 11.5217399597168 15.15217685699463 L 4.478260040283203 15.15217685699463 C 2.017078638076782 15.15217685699463 0.01324823219329119 13.15652847290039 6.611995922867209e-05 10.69838905334473 L 0.4551900029182434 1.877617001533508 L 0.4565199911594391 1.851866960525513 L 0.4565199911594391 1.82608699798584 C 0.4565199911594391 1.370576977729797 0.8270999789237976 0.9999970197677612 1.282610058784485 0.9999970197677612 L 14.7173900604248 0.9999970197677612 C 15.17290019989014 0.9999970197677612 15.54347991943359 1.370576977729797 15.54347991943359 1.82608699798584 L 15.54347991943359 1.851866960525513 L 15.54481029510498 1.877617001533508 L 15.99993419647217 10.69838905334473 C 15.98675155639648 13.15652847290039 13.9829216003418 15.15217685699463 11.5217399597168 15.15217685699463 Z"/><path class="t" d="M 1.450203895568848 1.999997138977051 L 1.000296592712402 10.71966934204102 C 1.024786949157715 12.61666679382324 2.575557708740234 14.15217685699463 4.478260040283203 14.15217685699463 L 11.5217399597168 14.15217685699463 C 13.42444229125977 14.15217685699463 14.97521305084229 12.61666679382324 14.9997034072876 10.71966934204102 L 14.54979515075684 1.999997138977051 L 1.450203895568848 1.999997138977051 M 1.282609939575195 -3.814697265625e-06 L 14.7173900604248 -3.814697265625e-06 C 15.72591018676758 -3.814697265625e-06 16.54347991943359 0.8175668716430664 16.54347991943359 1.82608699798584 L 17 10.67391681671143 C 17 13.69947719573975 14.54730033874512 16.15217781066895 11.5217399597168 16.15217781066895 L 4.478260040283203 16.15217781066895 C 1.452699661254883 16.15217781066895 -1 13.69947719573975 -1 10.67391681671143 L -0.5434799194335938 1.82608699798584 C -0.5434799194335938 0.8175668716430664 0.2740898132324219 -3.814697265625e-06 1.282609939575195 -3.814697265625e-06 Z"/></g><rect class="l" width="56" height="6" rx="2" transform="translate(-13038 -21799)"/><rect class="g" width="10.001" height="6.001" rx="2" transform="translate(-13105.307 -21943.91) rotate(89)"/><rect class="g" width="12" height="6" rx="2" transform="matrix(-0.695, 0.719, -0.719, -0.695, -13080.416, -21932.605)"/><line class="m" y2="26" transform="translate(-12988.5 -21857.5)"/><text class="n" transform="translate(-13191 -21822)"><tspan x="-39.674" y="0">LOADING</tspan></text><line class="o" x1="6" y2="11" transform="translate(-13238.5 -21857)"/><line class="o" x1="6" y2="11" transform="translate(-13228.5 -21856.844)"/><line class="o" x1="6" y2="11" transform="translate(-13218.5 -21856.844)"/><line class="o" x1="6" y2="11" transform="translate(-13208.5 -21856.844)"/><line class="o" x1="6" y2="11" transform="translate(-13198.5 -21856.844)"/><line class="o" x1="6" y2="11" transform="translate(-13188.5 -21857)"/><text class="p" transform="translate(-13130 -21630.871)"><tspan x="-97.222" y="0">正在加载中，请稍候...</tspan></text></g></svg>