<svg xmlns="http://www.w3.org/2000/svg" xmlns:xlink="http://www.w3.org/1999/xlink" width="400" height="400" viewBox="0 0 400 400"><defs><style>.a,.f{fill:none;}.b{fill:#cecece;stroke:#707070;opacity:0;}.c{isolation:isolate;clip-path:url(#a);}.d{fill:#f2f5ff;opacity:0.1;}.e{fill:#242426;}.e,.f,.g,.h{stroke:#4d87ff;stroke-width:2px;}.f,.g,.h,.m,.n{stroke-miterlimit:10;}.g,.n{fill:#ffc60a;}.h,.m{fill:#00d6b9;}.i{fill:#4d87ff;}.j{fill:#4c4c4e;}.k,.l{fill:#fff;}.k{font-size:64px;font-family:SegoeUI, Segoe UI;}.m,.n{stroke:rgba(0,0,0,0);}.o{stroke:none;}</style><clipPath id="a"><rect class="a" x="-37" y="-0.001" width="397.337" height="345.955"/></clipPath></defs><g transform="translate(11641 23645)"><g class="b" transform="translate(-11641 -23645)"><rect class="o" width="400" height="400"/><rect class="a" x="0.5" y="0.5" width="399" height="399"/></g><g class="c" transform="translate(-11603.796 -23597.979)"><path class="d" d="M73.5,5.085C155.091-20.441,224.341,57.2,243.124,81.444s86.5,20.991,75.72,86.005S150.969,270.567,102.949,208.473s-65.872-43.045-89.824-72.394S-8.087,30.612,73.5,5.085Z" transform="matrix(0.921, -0.391, 0.391, 0.921, 0, 125.033)"/></g><g class="e" transform="translate(-11573 -23586)"><path class="o" d="M40,0H246a40,40,0,0,1,40,40V210a10,10,0,0,1-10,10H10A10,10,0,0,1,0,210V40A40,40,0,0,1,40,0Z"/><path class="a" d="M40,1H246a39,39,0,0,1,39,39V210a9,9,0,0,1-9,9H10a9,9,0,0,1-9-9V40A39,39,0,0,1,40,1Z"/></g><g class="e" transform="translate(-11573 -23586)"><path class="o" d="M32,0H254a32,32,0,0,1,32,32V44a0,0,0,0,1,0,0H0a0,0,0,0,1,0,0V32A32,32,0,0,1,32,0Z"/><path class="a" d="M32,1H254a31,31,0,0,1,31,31V43a0,0,0,0,1,0,0H1a0,0,0,0,1,0,0V32A31,31,0,0,1,32,1Z"/></g><ellipse class="f" cx="8" cy="8" rx="8" ry="8" transform="translate(-11316.088 -23573) rotate(43)"/><ellipse class="g" cx="8" cy="8" rx="8" ry="8" transform="translate(-11343.088 -23573) rotate(43)"/><ellipse class="h" cx="8" cy="8" rx="8" ry="8" transform="translate(-11370.088 -23573) rotate(43)"/><path class="i" d="M-22,101a8,8,0,0,1-8-8V8a8,8,0,0,1,8-8H122a8,8,0,0,1,8,8V29.5l14.387,7.868a3,3,0,0,1,0,5.264L130,50.5V93a8,8,0,0,1-8,8Z" transform="translate(-11584.409 -23500.5)"/><rect class="j" width="120" height="48" rx="6" transform="translate(-11428 -23521)"/><rect class="j" width="96" height="18" rx="6" transform="translate(-11428 -23463)"/><rect class="j" width="112" height="18" rx="6" transform="translate(-11428 -23435)"/><text class="k" transform="translate(-11580 -23426)"><tspan x="-17.25" y="0">4</tspan></text><text class="k" transform="translate(-11490 -23426)"><tspan x="-17.25" y="0">4</tspan></text><path class="l" d="M146,128a18,18,0,1,0,18,18A18.053,18.053,0,0,0,146,128Zm12,21H134a3,3,0,1,1,0-6h24a3,3,0,1,1,0,6Z" transform="translate(-11535 -23241.525) rotate(-135)"/><rect class="m" width="10" height="6.001" rx="2" transform="matrix(-0.259, 0.966, -0.966, -0.259, -11592.309, -23519.447)"/><rect class="m" width="12" height="6" rx="2" transform="translate(-11619.796 -23519.053) rotate(60)"/><path class="m" d="M8.876,22.19a4.438,4.438,0,0,0-4.438-4.438,4.438,4.438,0,0,1,0-8.875A4.439,4.439,0,0,0,8.876,4.437a4.438,4.438,0,0,1,8.876,0A4.438,4.438,0,0,0,22.19,8.876a4.438,4.438,0,1,1,0,8.875,4.438,4.438,0,0,0-4.438,4.439,4.438,4.438,0,0,1-8.876,0Z" transform="translate(-11368.499 -23362) rotate(28)"/><path class="n" d="M7.489,4.993V2.5a2.5,2.5,0,0,1,4.993,0v2.5a2.5,2.5,0,0,1-4.993,0Zm9.986,7.489h-2.5a2.5,2.5,0,0,1,0-4.993h2.5a2.5,2.5,0,1,1,0,4.993Zm-12.482,0H2.5a2.5,2.5,0,1,1,0-4.993h2.5a2.5,2.5,0,0,1,0,4.993Zm2.5,4.993v-2.5a2.5,2.5,0,0,1,4.993,0v2.5a2.5,2.5,0,0,1-4.993,0Z" transform="matrix(-0.848, 0.53, -0.53, -0.848, -11290.627, -23602.584)"/></g></svg>