<svg xmlns="http://www.w3.org/2000/svg" xmlns:xlink="http://www.w3.org/1999/xlink" width="400" height="400" viewBox="0 0 400 400"><defs><style>.a{fill:none;}.b{fill:#cecece;stroke:#707070;opacity:0;}.c{isolation:isolate;clip-path:url(#a);}.d{fill:#f2f5ff;opacity:0.1;}.e{fill:#0c296e;font-size:20px;font-family:MicrosoftYaHei, Microsoft YaHei;}.f{fill:#4d87ff;}.g,.n{fill:#242426;}.h{fill:#4c4c4e;}.i,.l{fill:#00d6b9;}.j{fill:#fff;}.k,.p{fill:#eef1fb;}.l,.m{stroke:rgba(0,0,0,0);stroke-miterlimit:10;}.m,.o{fill:#ffc60a;}.n,.p{stroke:#4d87ff;stroke-width:2px;}.q,.r{stroke:none;}.r{fill:#4d87ff;}</style><clipPath id="a"><rect class="a" x="-24" y="-0.001" width="384.337" height="345.955"/></clipPath></defs><g transform="translate(12663.55 22417.5)"><g class="b" transform="translate(-12663.55 -22417.5)"><rect class="q" width="400" height="400"/><rect class="a" x="0.5" y="0.5" width="399" height="399"/></g><g class="c" transform="translate(-12626.346 -22370.479)"><path class="d" d="M73.5,5.085C155.091-20.441,224.341,57.2,243.124,81.444s86.5,20.991,75.72,86.005S150.969,270.567,102.949,208.473s-65.872-43.045-89.824-72.394S-8.087,30.612,73.5,5.085Z" transform="matrix(0.921, -0.391, 0.391, 0.921, 0, 125.033)"/></g><text class="e" transform="translate(-12463.55 -22043.871)"><tspan x="-2.959" y="0"> </tspan></text><path class="f" d="M171.689,48.219H0L12.793,28.144c4.019-5.943,6.722-10.82,8.894-14.74C26.94,3.924,29.115,0,39.37,0H143.578a11.008,11.008,0,0,1,6.093,1.8,16.707,16.707,0,0,1,4.574,4.674c2.646,3.839,4.58,8.858,6.449,13.712l0,.007.378.981,10.612,27.048h0ZM126.842,19.36a6.679,6.679,0,0,0,0,13.358h14.619a6.679,6.679,0,0,0,0-13.358Zm-14.448,2.319a3.579,3.579,0,0,0-3.575,3.575v1.57a3.575,3.575,0,0,0,7.15,0v-1.57A3.579,3.579,0,0,0,112.395,21.679Zm-10.5,0a3.579,3.579,0,0,0-3.575,3.575v1.57a3.575,3.575,0,0,0,7.15,0v-1.57A3.579,3.579,0,0,0,101.9,21.679Z" transform="translate(-12506.676 -22357.846)"/><path class="f" d="M3.437,0H275.511V156.887a15.564,15.564,0,0,1-15.437,15.689H15.014A15.564,15.564,0,0,1-.422,156.887L-12,15.689A15.564,15.564,0,0,1,3.437,0Z" transform="translate(-12621.111 -22325.627)"/><g class="g" transform="matrix(0.985, 0.174, -0.174, 0.985, -12580.632, -22353.986)"><path class="q" d="M 15.3069486618042 165.2214508056641 C 13.25980949401855 165.2214508056641 11.27917098999023 164.8249359130859 9.420031547546387 164.0428466796875 C 7.625031471252441 163.2877655029297 6.020809650421143 162.2082366943359 4.651976108551025 160.8342590332031 C 1.919448375701904 158.0915069580078 0.4225038886070251 154.4625091552734 0.4368927776813507 150.6158142089844 L 0.9414205551147461 15.67159557342529 C 0.956059455871582 11.75606727600098 2.527420520782471 8.067761421203613 5.366031646728516 5.286067485809326 C 8.210086822509766 2.499067306518555 11.98428153991699 0.9560950994491577 15.99339294433594 0.9414284229278564 L 204.8113098144531 0.249678447842598 L 204.8687286376953 0.2495673298835754 C 206.9158630371094 0.2495673298835754 208.8964996337891 0.6460950970649719 210.7556457519531 1.428178429603577 C 212.5506744384766 2.183261871337891 214.1548614501953 3.262789487838745 215.5236968994141 4.636734008789062 C 218.2562255859375 7.379511833190918 219.753173828125 11.00848388671875 219.7387847900391 14.85520648956299 L 219.2342529296875 149.7994232177734 C 219.2196502685547 153.7149505615234 217.6482849121094 157.4032592773438 214.8096466064453 160.1849517822266 C 211.9655914306641 162.9719543457031 208.1913909912109 164.5149230957031 204.1822814941406 164.5296020507812 L 15.36436462402344 165.2213439941406 L 15.3069486618042 165.2214508056641 Z"/><path class="r" d="M 204.8686828613281 1.24957275390625 L 204.8149566650391 1.24969482421875 L 15.99703979492188 1.941421508789062 C 12.24986267089844 1.955123901367188 8.722930908203125 3.396636962890625 6.06591796875 6.00030517578125 C 3.419830322265625 8.593338012695312 1.955047607421875 12.02934265136719 1.941421508789062 15.67530822753906 L 1.4368896484375 150.6195373535156 C 1.423477172851562 154.1984558105469 2.81689453125 157.5754547119141 5.360397338867188 160.1284790039062 C 7.98992919921875 162.7678680419922 11.52236938476562 164.2214508056641 15.30699157714844 164.2214508056641 L 15.3607177734375 164.2213287353516 L 204.1786041259766 163.5296020507812 C 207.9258117675781 163.5158996582031 211.4527435302734 162.0744018554688 214.1097259521484 159.4707183837891 C 216.7558441162109 156.8776550292969 218.2206268310547 153.4416809082031 218.2342529296875 149.7956848144531 L 218.7387847900391 14.85145568847656 C 218.752197265625 11.27256774902344 217.3587799072266 7.89556884765625 214.8152770996094 5.342575073242188 C 212.1857452392578 2.703155517578125 208.6533050537109 1.24957275390625 204.8686828613281 1.24957275390625 M 204.8686981201172 -0.75042724609375 C 213.6719512939453 -0.75042724609375 220.7710571289062 6.225372314453125 220.7387847900391 14.85891723632812 L 220.2342529296875 149.8031616210938 C 220.2018890380859 158.456298828125 213.0168304443359 165.4972534179688 204.1859283447266 165.5296020507812 L 15.3680419921875 166.2213287353516 C 6.534439086914062 166.2537078857422 -0.5954437255859375 159.2651977539062 -0.5631103515625 150.6120758056641 L -0.0585784912109375 15.66783142089844 C -0.026214599609375 7.014724731445312 7.158843994140625 -0.0262298583984375 15.98971557617188 -0.0585784912109375 L 204.8076324462891 -0.75030517578125 C 204.8275756835938 -0.7503814697265625 204.8487701416016 -0.75042724609375 204.8686981201172 -0.75042724609375 Z"/></g><path class="h" d="M11.991-.049l196.8-.8A11.741,11.741,0,0,1,220.732,10.82l-.507,121.367a11.978,11.978,0,0,1-12.04,11.771l-196.8.8A11.741,11.741,0,0,1-.556,133.089L-.049,11.722A11.978,11.978,0,0,1,11.991-.049Z" transform="matrix(0.985, 0.174, -0.174, 0.985, -12568.933, -22337.584)"/><path class="i" d="M7.37,0H92.282c9.664,0,17.5,6.355,17.5,14.194V36.372H-32l12.793-16.46C-5.471,3.256-7.126,0,7.37,0Z" transform="translate(-12444.767 -22342.221)"/><rect class="j" width="32.8" height="10.952" rx="5.476" transform="translate(-12379.364 -22329.51)"/><rect class="j" width="7.15" height="7.15" rx="3.575" transform="translate(-12444.622 -22327.609)"/><rect class="j" width="7.15" height="7.15" rx="3.575" transform="translate(-12432.196 -22327.609)"/><rect class="k" width="80.078" height="46.31" rx="6" transform="translate(-12470.06 -22270.408)"/><rect class="k" width="136.037" height="17.366" rx="6" transform="translate(-12526.017 -22215.322)"/><rect class="k" width="108.058" height="17.366" rx="6" transform="translate(-12498.036 -22188.877)"/><rect class="l" width="10" height="6.001" rx="2" transform="matrix(-0.259, 0.966, -0.966, -0.259, -12564.631, -22376.596)"/><rect class="l" width="12" height="6" rx="2" transform="translate(-12592.117 -22376.201) rotate(60)"/><path class="l" d="M8.876,22.19a4.438,4.438,0,0,0-4.438-4.438,4.438,4.438,0,0,1,0-8.875A4.439,4.439,0,0,0,8.876,4.437a4.438,4.438,0,0,1,8.876,0A4.438,4.438,0,0,0,22.19,8.876a4.438,4.438,0,1,1,0,8.875,4.438,4.438,0,0,0-4.438,4.439,4.438,4.438,0,0,1-8.876,0Z" transform="translate(-12496.121 -22119.506) rotate(28)"/><path class="m" d="M7.489,4.993V2.5a2.5,2.5,0,0,1,4.993,0v2.5a2.5,2.5,0,0,1-4.993,0Zm9.986,7.489h-2.5a2.5,2.5,0,0,1,0-4.993h2.5a2.5,2.5,0,1,1,0,4.993Zm-12.482,0H2.5a2.5,2.5,0,1,1,0-4.993h2.5a2.5,2.5,0,0,1,0,4.993Zm2.5,4.993v-2.5a2.5,2.5,0,0,1,4.993,0v2.5a2.5,2.5,0,0,1-4.993,0Z" transform="matrix(-0.848, 0.53, -0.53, -0.848, -12276.48, -22270.324)"/><g class="n" transform="translate(-12610.92 -22312.184)"><path class="q" d="M16,0H275.934a0,0,0,0,1,0,0V160.977a16,16,0,0,1-16,16H16a16,16,0,0,1-16-16V16A16,16,0,0,1,16,0Z"/><path class="a" d="M16,1H274.934a0,0,0,0,1,0,0V160.977a15,15,0,0,1-15,15H16a15,15,0,0,1-15-15V16A15,15,0,0,1,16,1Z"/></g><path class="o" d="M120.3,46.2v68.456a.934.934,0,0,0,.007.14.262.262,0,0,0,.007.07.237.237,0,0,0,.007.07c0,.028.007.056.007.084s.007.035.007.056.007.063.014.091.007.028.007.049.014.063.021.091a.089.089,0,0,1,.007.042l.021.084c.007.014.007.035.014.049a.249.249,0,0,0,.028.077c.007.021.014.035.021.056s.021.049.028.07l.021.063c.007.021.021.042.028.063s.021.049.028.07a.175.175,0,0,0,.028.049.374.374,0,0,1,.035.077.146.146,0,0,0,.028.042c.014.028.028.049.042.077a.146.146,0,0,0,.028.042c.014.028.035.049.049.077s.021.028.028.042a.533.533,0,0,0,.056.077c.014.014.021.028.035.042s.035.042.049.063.035.035.049.056.028.035.042.049c.035.035.063.07.1.1s.07.063.1.1c.014.014.035.028.049.042s.035.035.056.049a.382.382,0,0,0,.063.049c.014.014.028.021.042.035l.077.056c.014.007.028.021.042.028s.049.035.077.049a.146.146,0,0,1,.042.028c.028.014.049.028.077.042a.146.146,0,0,1,.042.028.374.374,0,0,0,.077.035.175.175,0,0,1,.049.028.292.292,0,0,0,.07.028c.021.007.042.021.063.028l.063.021c.021.007.049.021.07.028l.056.021c.028.007.056.021.077.028s.035.007.049.014l.084.021a.447.447,0,0,0,.049.014l.091.021c.014,0,.028.007.049.007a.408.408,0,0,0,.091.014c.021,0,.035.007.056.007a.34.34,0,0,0,.084.007c.021,0,.049.007.07.007s.042.007.07.007c.049,0,.091.007.14.007a.889.889,0,0,0,.139-.007.262.262,0,0,0,.07-.007.238.238,0,0,0,.07-.007c.028,0,.056-.007.084-.007s.035-.007.056-.007.063-.007.091-.014.028-.007.049-.007l.091-.021a.447.447,0,0,1,.049-.014l.084-.021c.014-.007.035-.007.049-.014a.25.25,0,0,0,.077-.028l.056-.021c.021-.007.049-.021.07-.028l.063-.021c.021-.007.042-.021.063-.028s.049-.021.07-.028a.175.175,0,0,0,.049-.028.373.373,0,0,1,.077-.035.146.146,0,0,0,.042-.028c.028-.014.049-.028.077-.042a.146.146,0,0,0,.042-.028.733.733,0,0,0,.077-.049c.014-.007.028-.021.042-.028a.533.533,0,0,0,.077-.056c.014-.014.028-.021.042-.035a.605.605,0,0,1,.07-.049.35.35,0,0,0,.056-.049c.014-.014.035-.028.049-.042a.646.646,0,0,0,.1-.1l21.765-21.765,21.765,21.765a2.862,2.862,0,0,0,2.058.837h.035a2.86,2.86,0,0,0,2.86-2.86V46.256C169.116,46.325,122.879,46.228,120.3,46.2Z" transform="translate(-12693.316 -22356.855)"/><g transform="matrix(0.921, -0.391, 0.391, 0.921, 7239.154, -6406.504)"><path class="p" d="M22,77A22,22,0,0,1,0,55V22A22,22,0,0,1,37.556,6.444,21.855,21.855,0,0,1,44,22V55A22,22,0,0,1,22,77ZM22,9A13.014,13.014,0,0,0,9,22V41a13,13,0,0,0,26,0V22A13.015,13.015,0,0,0,22,9Z" transform="translate(-11824 -22340)"/><path class="f" d="M8,0H60a8,8,0,0,1,8,8V20A30,30,0,0,1,38,50H30A30,30,0,0,1,0,20V8A8,8,0,0,1,8,0Z" transform="translate(-11836 -22308)"/><path class="j" d="M2,0H8a2,2,0,0,1,2,2L9,6A2,2,0,0,1,7,8H3A2,2,0,0,1,1,6L0,2A2,2,0,0,1,2,0Z" transform="translate(-11797 -22274) rotate(180)"/><circle class="j" cx="8" cy="8" r="8" transform="translate(-11810 -22296)"/></g><path class="i" d="M-.06-.191h19L23.3,12.52H0Z" transform="translate(-12370.404 -22342.029)"/><rect class="h" width="56.82" height="46.31" rx="6" transform="translate(-12425.044 -22272.607)"/><rect class="h" width="48.24" height="11.578" rx="2" transform="translate(-12487.425 -22266.227)"/><rect class="h" width="47.397" height="11.578" rx="2" transform="translate(-12486.583 -22244.279)"/><rect class="h" width="174.629" height="11.578" rx="2" transform="translate(-12542.899 -22205.791)"/><rect class="h" width="159.108" height="12" rx="2" transform="translate(-12522.658 -22180.5)"/></g></svg>