<svg xmlns="http://www.w3.org/2000/svg" width="400" height="400" viewBox="0 0 400 400"><defs><style>.a{fill:#fff;stroke:#707070;opacity:0;}.b{fill:#f2f5ff;opacity:0.1;}.c{fill:#00d6b9;}.c,.e{stroke:rgba(0,0,0,0);}.c,.d,.e{stroke-miterlimit:10;}.d,.j,.l{fill:none;}.d,.j{stroke:#4d87ff;}.d{stroke-width:2px;}.e{fill:#ffc60a;}.f{fill:#242426;}.g{fill:#4d87ff;}.h{fill:#4c4c4e;}.i{fill:#232323;}.j{stroke-width:10px;}.k,.m{stroke:none;}.m{fill:#37f;}</style></defs><g transform="translate(-760 -298)"><g class="a" transform="translate(760 298)"><rect class="k" width="400" height="400"/><rect class="l" x="0.5" y="0.5" width="399" height="399"/></g><g transform="translate(-30 13.629)"><path class="b" d="M73.5,234.915c81.589,25.527,150.839-52.115,169.622-76.358s86.5-20.991,75.72-86.005S150.969-30.567,102.949,31.527,37.078,74.572,13.125,103.921-8.087,209.388,73.5,234.915Z" transform="matrix(-0.921, -0.391, 0.391, -0.921, 1090.393, 671.979)"/><rect class="c" width="12" height="6" rx="2" transform="translate(1133 382.33) rotate(150)"/><rect class="c" width="10" height="6.001" rx="2" transform="matrix(0.259, 0.966, -0.966, 0.259, 1092.721, 355.92)"/><rect class="c" width="12" height="6" rx="2" transform="translate(1119.607 360.867) rotate(120)"/><ellipse class="d" cx="7.993" cy="7.993" rx="7.993" ry="7.993" transform="translate(954.445 296.762) rotate(43)"/><path class="c" d="M8.876,22.19a4.438,4.438,0,0,0-4.438-4.438,4.438,4.438,0,0,1,0-8.875A4.439,4.439,0,0,0,8.876,4.437a4.438,4.438,0,0,1,8.876,0A4.438,4.438,0,0,0,22.19,8.876a4.438,4.438,0,1,1,0,8.875,4.438,4.438,0,0,0-4.438,4.439,4.438,4.438,0,0,1-8.876,0Z" transform="translate(839.859 394.43) rotate(28)"/><path class="e" d="M7.489,4.993V2.5a2.5,2.5,0,0,1,4.993,0v2.5a2.5,2.5,0,0,1-4.993,0Zm9.986,7.489h-2.5a2.5,2.5,0,0,1,0-4.993h2.5a2.5,2.5,0,1,1,0,4.993Zm-12.482,0H2.5a2.5,2.5,0,1,1,0-4.993h2.5a2.5,2.5,0,0,1,0,4.993Zm2.5,4.993v-2.5a2.5,2.5,0,0,1,4.993,0v2.5a2.5,2.5,0,0,1-4.993,0Z" transform="matrix(-0.848, 0.53, -0.53, -0.848, 907.463, 537.936)"/><g class="f" transform="translate(883.701 342.459)"><path class="k" d="M 133.464599609375 181.0799102783203 L 57.16350936889648 181.0799102783203 C 52.43815231323242 181.0799102783203 47.85467529296875 180.1546630859375 43.54036712646484 178.3299255371094 C 39.37272262573242 176.5671997070312 35.62955856323242 174.04345703125 32.41489028930664 170.828857421875 C 29.20019912719727 167.6142120361328 26.67641448974609 163.8710784912109 24.91362953186035 159.7034149169922 C 23.08877182006836 155.3890533447266 22.16350936889648 150.8054351806641 22.16350936889648 146.0799102783203 L 22.16350936889648 36.00000381469727 C 22.16350936889648 35.50162124633789 22.1741771697998 34.99609756469727 22.19519996643066 34.49743270874023 L 22.19900894165039 34.40683746337891 L 22.18646240234375 34.31700134277344 C 21.94817543029785 32.61062240600586 21.76203346252441 30.77759742736816 21.56496238708496 28.83695602416992 C 20.98880767822266 23.1629695892334 20.3931713104248 17.29635047912598 18.38076400756836 13.35089302062988 C 17.83829498291016 12.1863374710083 14.13845634460449 4.6640944480896 7.511366367340088 1.00000274181366 L 131.0282897949219 1.00000274181366 L 133.464599609375 1.00000274181366 C 138.1899108886719 1.00000274181366 142.7733917236328 1.925264716148376 147.0877227783203 3.750121831893921 C 151.25537109375 5.5129075050354 154.99853515625 8.036693572998047 158.2132263183594 11.25138378143311 C 161.4279174804688 14.46607398986816 163.9517059326172 18.2092399597168 165.7144927978516 22.37688446044922 C 167.5393371582031 26.69121742248535 168.464599609375 31.27469253540039 168.464599609375 36.00000381469727 L 168.464599609375 146.0799102783203 C 168.464599609375 150.8054351806641 167.5393371582031 155.3890533447266 165.7144927978516 159.7034149169922 C 163.9517059326172 163.8710784912109 161.4279174804688 167.6142120361328 158.2132263183594 170.828857421875 C 154.9985504150391 174.04345703125 151.2553863525391 176.5671997070312 147.0877532958984 178.3299255371094 C 142.7734375 180.1546630859375 138.1899566650391 181.0799102783203 133.464599609375 181.0799102783203 Z"/><path class="m" d="M 133.464599609375 180.0799102783203 C 138.0554046630859 180.0799102783203 142.5078277587891 179.1812591552734 146.6981811523438 177.4089050292969 C 150.7466430664062 175.6965789794922 154.3829498291016 173.2448272705078 157.506103515625 170.1217346191406 C 160.6293029785156 166.9986114501953 163.0811309814453 163.3623046875 164.7934722900391 159.3138580322266 C 166.5659027099609 155.1233978271484 167.464599609375 150.6708831787109 167.464599609375 146.0799102783203 L 167.464599609375 36.00000381469727 C 167.464599609375 31.40925598144531 166.5659027099609 26.95683097839355 164.7935028076172 22.76645469665527 C 163.0811004638672 18.71800422668457 160.6292724609375 15.08168029785156 157.506103515625 11.95850467681885 C 154.3829193115234 8.835330009460449 150.7465972900391 6.383505344390869 146.6981506347656 4.671104907989502 C 142.5077819824219 2.898705244064331 138.0553436279297 2.00000524520874 133.464599609375 2.00000524520874 L 10.79124641418457 2.00000524520874 C 15.90918636322021 6.03912353515625 18.77484321594238 11.83249855041504 19.2794017791748 12.91186237335205 C 21.37064361572266 17.02380180358887 21.97511100769043 22.9775390625 22.55987548828125 28.73603057861328 C 22.75595092773438 30.66703033447266 22.94117546081543 32.4909553527832 23.17684936523438 34.17870330810547 L 23.20195007324219 34.35832977294922 L 23.19429969787598 34.53955459594727 C 23.17385101318359 35.02423095703125 23.16349983215332 35.51557922363281 23.16349983215332 36.00000381469727 L 23.16349983215332 146.0799102783203 C 23.16349983215332 150.6708831787109 24.06220054626465 155.1233978271484 25.83462524414062 159.3138580322266 C 27.54697418212891 163.3623046875 29.99880027770996 166.9986114501953 33.12200164794922 170.1217346191406 C 36.24515151977539 173.2448272705078 39.88145065307617 175.6965789794922 43.92992401123047 177.4089050292969 C 48.12027359008789 179.1812591552734 52.57270050048828 180.0799102783203 57.16350173950195 180.0799102783203 L 133.464599609375 180.0799102783203 M 133.464599609375 182.0799102783203 L 57.16350173950195 182.0799102783203 C 37.28160095214844 182.0799102783203 21.16349983215332 165.9627075195312 21.16349983215332 146.0799102783203 L 21.16349983215332 36.00000381469727 C 21.16349983215332 35.48305511474609 21.17449951171875 34.96695327758789 21.19607543945312 34.45530700683594 C 20.26437568664551 27.78347969055176 20.08972549438477 18.8845043182373 17.48159980773926 13.78890514373779 C 15.44309997558594 9.396904945373535 9.336600303649902 0.005405139178037643 0.00180007319431752 5.139160293765599e-06 L 133.464599609375 5.139160293765599e-06 C 153.3464965820312 5.139160293765599e-06 169.464599609375 16.11810493469238 169.464599609375 36.00000381469727 L 169.464599609375 146.0799102783203 C 169.464599609375 165.9627075195312 153.3464965820312 182.0799102783203 133.464599609375 182.0799102783203 Z"/></g><path class="g" d="M19339.109,24201.369l-117.637-.795c1.719,0-.885.484.867-.152,5.559-2.008,9.6-7.629,12.084-11.918a66.933,66.933,0,0,0,5.594-13.949h118.869a51.527,51.527,0,0,0,8.377-.357l-.379,1.273c-1.6,4.891-2.568,8.2-5.291,13.051s-5.85,8-9.641,10.066C19348.035,24200.732,19343.4,24201.369,19339.109,24201.369Z" transform="translate(-18287 -23676.828)"/><rect class="h" width="80" height="10" rx="5" transform="translate(934.473 387.499)"/><rect class="h" width="40" height="10" rx="5" transform="translate(934.473 421.499)"/><g transform="translate(-51.059 587.432) rotate(-30)"><path class="e" d="M4.5,0h17a4.5,4.5,0,0,1,0,9H4.5a4.5,4.5,0,0,1,0-9Z" transform="translate(1057 465) rotate(90)"/><rect class="g" width="20" height="14" rx="7" transform="translate(1042 465)"/><rect class="g" width="24" height="72" rx="8" transform="translate(1040 487)"/><circle class="i" cx="50" cy="50" r="50" transform="translate(1002 373)"/><rect class="h" width="60" height="15" rx="6" transform="translate(1022.468 382.277) rotate(30)"/><rect class="h" width="32.16" height="15" rx="6" transform="translate(1009.468 404.794) rotate(30)"/><g class="j" transform="translate(1002 373)"><circle class="k" cx="50" cy="50" r="50"/><circle class="l" cx="50" cy="50" r="45"/></g></g></g></g></svg>